<?xml version="1.0" standalone="no"?>
<!DOCTYPE svg PUBLIC "-//W3C//DTD SVG 20010904//EN"
 "http://www.w3.org/TR/2001/REC-SVG-20010904/DTD/svg10.dtd">
<svg version="1.0" xmlns="http://www.w3.org/2000/svg"
 width="1024.000000pt" height="1024.000000pt" viewBox="0 0 1024.000000 1024.000000"
 preserveAspectRatio="xMidYMid meet">

<g transform="translate(0.000000,1024.000000) scale(0.100000,-0.100000)"
fill="#000000" stroke="none">
<path d="M2400 7630 c-20 -20 -20 -33 -20 -2243 0 -1995 2 -2225 16 -2245 15
-22 16 -22 327 -22 179 0 318 4 327 10 13 8 16 138 20 1041 l5 1031 24 19 c21
18 42 19 270 19 214 0 251 -2 281 -18 21 -10 92 -82 174 -177 175 -202 745
-868 1323 -1547 166 -195 313 -359 328 -366 19 -9 154 -12 500 -12 l474 0 15
22 c14 19 16 67 16 323 l0 302 23 21 c23 22 26 22 433 22 354 0 413 2 432 16
22 15 22 16 22 319 0 303 0 304 -22 319 -19 14 -78 16 -440 16 l-417 0 -15 22
c-14 19 -16 71 -16 360 0 325 1 339 20 358 20 20 33 20 565 20 532 0 545 0
565 20 19 19 20 33 20 323 l0 304 -23 21 -23 22 -887 0 c-874 0 -887 0 -907
-20 -20 -20 -20 -33 -20 -1042 0 -563 -4 -1029 -9 -1036 -5 -9 -40 26 -117
120 -251 306 -558 678 -1107 1338 -127 153 -156 195 -163 229 -7 32 3 43 697
738 407 408 718 711 736 719 27 12 191 14 986 14 875 0 956 1 968 17 11 12 15
75 17 282 2 146 1 280 -3 298 -12 68 82 63 -1173 63 l-1137 0 -36 -23 c-32
-19 -417 -412 -1383 -1411 -137 -141 -262 -264 -277 -272 -23 -11 -89 -14
-352 -14 -317 0 -324 0 -343 21 -18 20 -19 51 -22 842 -2 743 -4 823 -19 839
-15 17 -40 18 -325 18 -295 0 -309 -1 -328 -20z"/>
</g>
</svg>
